<svg width="39" height="39" viewBox="0 0 39 39" fill="none" xmlns="http://www.w3.org/2000/svg">
<path d="M22.75 4.875V11.375C22.75 11.806 22.9212 12.2193 23.226 12.524C23.5307 12.8288 23.944 13 24.375 13H30.875" stroke="#FECC99" stroke-width="2" stroke-linecap="round" stroke-linejoin="round"/>
<path d="M16.25 34.125H11.375C10.513 34.125 9.6864 33.7826 9.0769 33.1731C8.46741 32.5636 8.125 31.737 8.125 30.875V8.125C8.125 7.26305 8.46741 6.4364 9.0769 5.8269C9.6864 5.21741 10.513 4.875 11.375 4.875H22.75L30.875 13V19.5" stroke="#FECC99" stroke-width="2" stroke-linecap="round" stroke-linejoin="round"/>
<path d="M22.75 34.125V27.625C22.75 26.763 23.0924 25.9364 23.7019 25.3269C24.3114 24.7174 25.138 24.375 26 24.375C26.862 24.375 27.6886 24.7174 28.2981 25.3269C28.9076 25.9364 29.25 26.763 29.25 27.625V34.125M22.75 30.875H29.25M34.125 24.375V34.125" stroke="#FECC99" stroke-width="2" stroke-linecap="round" stroke-linejoin="round"/>
</svg>
