<svg width="40" height="40" viewBox="0 0 40 40" fill="none" xmlns="http://www.w3.org/2000/svg">
<path d="M16.6673 3.33325H23.334C24.218 3.33325 25.0659 3.68444 25.691 4.30956C26.3161 4.93468 26.6673 5.78253 26.6673 6.66659V9.99992H33.334C34.218 9.99992 35.0659 10.3511 35.691 10.9762C36.3161 11.6013 36.6673 12.4492 36.6673 13.3333V31.6666C36.6673 32.5506 36.3161 33.3985 35.691 34.0236C35.0659 34.6487 34.218 34.9999 33.334 34.9999H6.66732C5.78326 34.9999 4.93542 34.6487 4.31029 34.0236C3.68517 33.3985 3.33398 32.5506 3.33398 31.6666V13.3333C3.33398 11.4833 4.81732 9.99992 6.66732 9.99992H13.334V6.66659C13.334 4.81659 14.8173 3.33325 16.6673 3.33325ZM23.334 9.99992V6.66659H16.6673V9.99992H23.334Z" fill="#FECC99"/>
</svg>
